<svg xmlns="http://www.w3.org/2000/svg" version="1.0" preserveAspectRatio="xMidYMid meet" viewBox="42 133 1521.8 1333.5">

<g transform="translate(0.000000,1600.000000) scale(0.100000,-0.100000)" fill="#6eacda" stroke="none">
<path d="M3662 14038 c-187 -348 -993 -1848 -1791 -3332 -798 -1485 -1451 -2703 -1451 -2706 0 -3 805 -1504 1790 -3336 l1789 -3329 4001 0 4001 0 428 785 c236 432 1054 1931 1819 3332 l1390 2548 -1390 2548 c-765 1401 -1583 2900 -1819 3332 l-428 785 -4000 3 -3999 2 -340 -632z m5204 -2729 c315 -60 687 -210 984 -394 394 -245 765 -620 996 -1007 249 -419 392 -855 461 -1408 26 -207 26 -791 0 -1000 -100 -806 -382 -1435 -872 -1939 -420 -433 -943 -727 -1532 -863 l-98 -22 -1737 -3 -1738 -3 0 3330 0 3330 1714 0 c1691 0 1716 0 1822 -21z" fill="#6eacda"/>
<path d="M6670 8000 l0 -2000 993 2 992 3 100 34 c135 45 253 98 357 160 492 290 787 783 870 1451 17 137 17 563 0 700 -101 816 -523 1374 -1212 1606 l-115 39 -992 3 -993 2 0 -2000z" fill="#6eacda"/>
</g>
</svg>